<?xml version="1.0" encoding="UTF-8" standalone="no"?>
<!DOCTYPE svg PUBLIC "-//W3C//DTD SVG 1.1//EN" "http://www.w3.org/Graphics/SVG/1.1/DTD/svg11.dtd">
<svg width="100%" height="100%" viewBox="0 0 3300 2550" version="1.1" xmlns="http://www.w3.org/2000/svg" xmlns:xlink="http://www.w3.org/1999/xlink" xml:space="preserve" xmlns:serif="http://www.serif.com/" style="fill-rule:evenodd;clip-rule:evenodd;stroke-linecap:round;stroke-linejoin:round;stroke-miterlimit:10;">
<g id="Layer-1" serif:id="Layer 1"></g><g id="Layer-2" serif:id="Layer 2"><g><path d="M1064.571,691.77l78.733,0l0,157.708l1006.925,0l0,-157.708l82.875,0" style="fill:none;fill-rule:nonzero;stroke:#f48914;stroke-width:48.45px;"/>
<path d="M2071.812,787.474l-862.521,0c-8.983,0 -16.263,-7.283 -16.263,-16.262l0,-200.95c0,-8.983 7.279,-16.262 16.263,-16.262l862.521,0c8.983,0 16.262,7.279 16.262,16.262l0,200.95c0,8.979 -7.279,16.262 -16.262,16.262" style="fill:#f48914;fill-rule:nonzero;"/>
<path d="M1653.392,283.942c-545.083,0 -986.958,443.712 -986.958,991.058c0,547.346 441.875,991.058 986.958,991.058c545.079,0 986.958,-443.712 986.958,-991.058c0,-547.346 -441.879,-991.058 -986.958,-991.058m0,83.046c122.021,0 240.35,23.983 351.704,71.275c107.617,45.708 204.292,111.167 287.337,194.554c83.067,83.417 148.279,180.533 193.821,288.658c47.146,111.921 71.046,230.867 71.046,353.525c0,122.658 -23.9,241.604 -71.046,353.529c-45.542,108.125 -110.754,205.237 -193.821,288.654c-83.046,83.392 -179.721,148.85 -287.337,194.554c-111.354,47.296 -229.683,71.275 -351.704,71.275c-122.021,0 -240.354,-23.979 -351.704,-71.275c-107.617,-45.704 -204.292,-111.163 -287.337,-194.554c-83.067,-83.417 -148.279,-180.529 -193.821,-288.654c-47.146,-111.925 -71.046,-230.871 -71.046,-353.529c0,-122.658 23.9,-241.604 71.046,-353.525c45.542,-108.125 110.754,-205.242 193.821,-288.658c83.046,-83.388 179.721,-148.846 287.337,-194.554c111.35,-47.292 229.683,-71.275 351.704,-71.275" style="fill:#f48914;fill-rule:nonzero;"/>
<path d="M1580.056,1020.492c4.1,-0.012 8.204,-0.017 12.304,-0.017c16.717,0 33.438,0.096 50.158,0.192c16.812,0.092 33.625,0.188 50.437,0.188c4.096,0 8.188,-0.004 12.279,-0.017l0.163,83.587c-22.871,13.421 -46.242,26.158 -69.638,37.954c-18.304,9.229 -36.942,18.042 -55.704,26.342l0,-148.229Z" style="fill:#f48914;fill-rule:nonzero;"/>
<path d="M1592.387,996.023c-6.375,0 -12.75,0.013 -19.125,0.046c-9.771,0.05 -17.658,8.054 -17.658,17.867l0,191.717c28.883,-11.733 59.4,-25.425 91.162,-41.438c29.725,-14.987 57.438,-30.446 83.104,-45.892c-0.067,-34.721 -0.129,-69.442 -0.196,-104.158c-0.017,-9.871 -8,-17.804 -17.812,-17.804l-0.096,0c-6.3,0.029 -12.604,0.046 -18.904,0.046c-33.492,0 -66.983,-0.383 -100.475,-0.383m12.117,48.917c12.671,0.033 25.417,0.104 37.842,0.175c12.617,0.071 25.562,0.146 38.487,0.175l0.042,21.046l0.046,24.013c-18.537,10.596 -37.342,20.708 -56.167,30.2c-6.708,3.383 -13.462,6.708 -20.25,9.971l0,-85.579" style="fill:#f48914;fill-rule:nonzero;"/>
<path d="M1638.237,870.172l-0.104,132.112" style="fill:none;fill-rule:nonzero;stroke:#f48914;stroke-width:44.98px;"/>
<path d="M615.961,1231.224c200.493,60.828 320.812,39.871 426.87,43.776c444.683,16.371 666.75,-282.072 1153.275,-312.746c200.929,-12.672 357.09,21.496 464.286,58.273c29.4,43.904 57.868,167.826 55.45,256.579c-7.983,293.077 -45.716,286.425 -73.629,336.864c-82.833,-19.278 -171.741,-18.78 -335.611,-9.443c-494.317,28.158 -764.939,304.4 -1226.856,315.554c-100.608,2.429 -84.281,5.035 -292.447,-36.336c-30.733,-29.424 -167.765,-246.053 -181.227,-451.801c-10.663,-163.023 -16.208,-158.364 9.888,-200.72Z" style="fill:#f48914;fill-rule:nonzero;stroke:#fff;stroke-width:34.6px;stroke-linecap:butt;stroke-linejoin:miter;"/><g transform="matrix(0.996136,0.087819,-0.070856,0.815678,0.317071,44.260898)"><text x="1702.27px" y="2335.09px" style="font-family:'BebasNeue-Regular', 'Bebas Neue', sans-serif;font-size:202.01px;fill:#f48914;">a</text></g><g transform="matrix(0.999902,-0.013999,0.012464,0.818865,-0.884688,6.380276)"><text x="1589.332px" y="2591.347px" style="font-family:'BebasNeue-Regular', 'Bebas Neue', sans-serif;font-size:201.984px;fill:#f48914;">r</text></g><g transform="matrix(0.991794,-0.127846,0.105614,0.81234,-14.16142,-29.32394)"><text x="1436.568px" y="2852.331px" style="font-family:'BebasNeue-Regular', 'Bebas Neue', sans-serif;font-size:201.958px;fill:#f48914;">t</text></g><g transform="matrix(0.972079,-0.234656,0.192994,0.796301,-34.655926,-53.132263)"><text x="1272.191px" y="3069.819px" style="font-family:'BebasNeue-Regular', 'Bebas Neue', sans-serif;font-size:201.936px;fill:#f48914;">e</text></g><g transform="matrix(0.924062,-0.382242,0.313712,0.757129,-69.337003,-69.204145)"><text x="1048.487px" y="3326.477px" style="font-family:'BebasNeue-Regular', 'Bebas Neue', sans-serif;font-size:201.912px;fill:#f48914;">i</text></g><g transform="matrix(0.893927,-0.448213,0.367663,0.732516,-82.847503,-67.542836)"><text x="907.229px" y="3421.114px" style="font-family:'BebasNeue-Regular', 'Bebas Neue', sans-serif;font-size:201.905px;fill:#f48914;">m</text></g><g transform="matrix(0.842254,-0.53908,0.441967,0.690291,-100.256669,-61.251936)"><text x="745.9px" y="3537.313px" style="font-family:'BebasNeue-Regular', 'Bebas Neue', sans-serif;font-size:201.899px;fill:#f48914;">p</text></g><g transform="matrix(0.761368,-0.64832,0.531274,0.62416,-103.751677,-41.37581)"><text x="451.48px" y="3626.558px" style="font-family:'BebasNeue-Regular', 'Bebas Neue', sans-serif;font-size:201.899px;fill:#f48914;">r</text></g><g transform="matrix(0.665421,-0.746468,0.611488,0.545685,-86.382472,-22.001757)"><text x="136.782px" y="3650.805px" style="font-family:'BebasNeue-Regular', 'Bebas Neue', sans-serif;font-size:201.91px;fill:#f48914;">e</text></g><g transform="matrix(0.567509,-0.823367,0.674315,0.46558,-52.811724,-14.400586)"><text x="-163.889px" y="3616.559px" style="font-family:'BebasNeue-Regular', 'Bebas Neue', sans-serif;font-size:201.926px;fill:#f48914;">s</text></g><g transform="matrix(0.478796,-0.877926,0.718869,0.392985,-17.380316,-21.010531)"><text x="-409.203px" y="3552.44px" style="font-family:'BebasNeue-Regular', 'Bebas Neue', sans-serif;font-size:201.946px;fill:#f48914;">o</text></g><g transform="matrix(0.999427,-0.033857,0.027721,0.818304,-6.169763,24.711164)"><text x="762.189px" y="2192.282px" style="font-family:'BebasNeue-Regular', 'Bebas Neue', sans-serif;font-size:673.357px;">g</text></g><g transform="matrix(0.994246,-0.107119,0.087706,0.814062,-5.969428,-9.823032)"><text x="903.208px" y="2332.746px" style="font-family:'BebasNeue-Regular', 'Bebas Neue', sans-serif;font-size:673.357px;">r</text></g><g transform="matrix(0.935583,-0.353106,0.289114,0.76603,-36.632343,-39.944313)"><text x="715.099px" y="2656.515px" style="font-family:'BebasNeue-Regular', 'Bebas Neue', sans-serif;font-size:673.357px;">a</text></g><g transform="matrix(0.911073,-0.412244,0.337535,0.745962,-58.83273,-54.312533)"><text x="867.832px" y="2754.582px" style="font-family:'BebasNeue-Regular', 'Bebas Neue', sans-serif;font-size:673.356px;">f</text></g><g transform="matrix(0.968491,-0.24905,0.203915,0.792974,-9.247716,-61.992786)"><text x="1380.56px" y="2468.672px" style="font-family:'BebasNeue-Regular', 'Bebas Neue', sans-serif;font-size:673.357px;">l</text></g><g transform="matrix(0.992399,-0.123063,0.100761,0.812549,-24.20736,-27.110592)"><text x="1889.361px" y="2154.068px" style="font-family:'BebasNeue-Regular', 'Bebas Neue', sans-serif;font-size:673.357px;">a</text></g><g transform="matrix(0.999811,0.01943,-0.015909,0.818618,0.453995,17.425631)"><text x="2353.352px" y="1713.967px" style="font-family:'BebasNeue-Regular', 'Bebas Neue', sans-serif;font-size:673.357px;">b</text></g></g></g><g id="FONDOS"></g><g id="LOGO"></g></svg>